<svg xmlns="http://www.svgrepo.com/show/159424/database.svg" viewBox="0 0 24 24" fill="none" xmlns="http://www.w3.org/2000/svg">
  <path d="M12 7.5C16.9706 7.5 21 6.15685 21 4.5C21 2.84315 16.9706 1.5 12 1.5C7.02944 1.5 3 2.84315 3 4.5C3 6.15685 7.02944 7.5 12 7.5Z" fill="#3B82F6"/>
  <path d="M21 9C21 10.6569 16.9706 12 12 12C7.02944 12 3 10.6569 3 9V12C3 13.6569 7.02944 15 12 15C16.9706 15 21 13.6569 21 12V9Z" fill="#2563EB"/>
  <path d="M21 15C21 16.6569 16.9706 18 12 18C7.02944 18 3 16.6569 3 15V18.5C3 20.1569 7.02944 21.5 12 21.5C16.9706 21.5 21 20.1569 21 18.5V15Z" fill="#1D4ED8"/>
  <path d="M13 3.5L9 11H12.5L11 19.5L17 10.5H13.5L15 5.5H13V3.5Z" fill="#FDE047"/>
</svg>